# xmcd CD Database Entry
#
# Track frame offsets:
# 150
# 9632
# 38802
# 56861
# 79313
# 96760
# 115785
# 133844
# 147961
# 154703
# 173585
#
# Disc length: 2633 seconds
#
# Revision: 30
# Processed by: cddbd v1.5.1PL0 Copyright (c) Steve Scherf et al.
# Submitted via: tcd 2.0b
#
DISCID=8f0a470b
DTITLE=Enigma - The Screen Behind The Mirror
DYEAR=2000
DGENRE=Blues
TTITLE0=The Gate
TTITLE1=Push the Limits
TTITLE2=Gravity of Love
TTITLE3=Smell of Desire
TTITLE4=Modern Crusaders
TTITLE5=Traces (Light and Weight)
TTITLE6=The Screen Behind the Mirror
TTITLE7=Endless Quest
TTITLE8=Camera Obscura
TTITLE9=Between Mind and Heart
TTITLE10=Silence Must Be Heard
EXTD=
EXTT0=
EXTT1=
EXTT2=
EXTT3=
EXTT4=
EXTT5=
EXTT6=
EXTT7=
EXTT8=
EXTT9=
EXTT10=
PLAYORDER=
